<?xml version="1.0" encoding="UTF-8"?>
<!-- Generator: Adobe Illustrator 14.0.0, SVG Export Plug-In . SVG Version: 6.00 Build 43363)  -->
<!DOCTYPE svg PUBLIC "-//W3C//DTD SVG 1.1//EN" "http://www.w3.org/Graphics/SVG/1.1/DTD/svg11.dtd">
<svg version="1.1" id="Layer_1" xmlns="http://www.w3.org/2000/svg" xmlns:xlink="http://www.w3.org/1999/xlink" x="0px" y="0px" width="250px" height="133px" viewBox="0 0 250 133" enable-background="new 0 0 250 133" xml:space="preserve">
<g>
	<polyline fill="#807F83" points="127.944,127.413 127.944,126.037 130.728,126.037 130.728,104.313 127.944,104.313 127.944,102.945 143.164,102.945 143.164,101.908 144.871,101.908 144.871,107.81 143.2,107.81 143.2,104.652 134.408,104.652 134.408,114.143 141.42,114.143 141.42,111.344 143.118,111.344 143.118,118.648 141.42,118.648 141.42,115.813 134.408,115.813 134.408,125.752 143.54,125.752 143.54,122.485 145.238,122.485 145.238,127.413 127.944,127.413"/>
	<polyline fill="#807F83" points="242.229,104.322 242.229,127.817 240.641,127.817 226.405,108.241 226.405,126.037 229.232,126.037 229.232,127.413 221.753,127.413 221.753,126.037 224.561,126.037 224.561,105.727 223.561,104.322 221,104.322 221,102.945 227.104,102.945 240.365,121.117 240.365,104.322 237.548,104.322 237.548,102.945 245,102.945 245,104.322 242.229,104.322"/>
	<path fill="#807F83" d="M205.187,127.891c-6.81,0-12.188-5.782-12.188-12.674c0-6.976,5.341-12.712,12.188-12.712   c6.728,0,12.078,5.782,12.078,12.684C217.265,122.081,211.914,127.891,205.187,127.891 M205.224,104.433   c-4.855,0-8.132,4.451-8.132,10.756c0,6.26,3.276,10.775,8.095,10.775c4.745,0,7.984-4.553,7.984-10.775   C213.171,108.957,209.932,104.433,205.224,104.433z"/>
	<polyline fill="#807F83" points="112.912,127.413 112.912,126.037 115.688,126.037 115.688,107.81 106.606,127.78 97.066,107.396 97.066,126.037 99.884,126.037 99.884,127.413 92.399,127.413 92.399,126.037 95.203,126.037 95.203,104.313 92.399,104.313 92.399,102.945 98.961,102.945 107.524,121.219 115.945,102.945 122.158,102.945 122.158,104.313 119.373,104.313 119.373,126.037 122.158,126.037 122.158,127.413 112.912,127.413"/>
	<polyline fill="#807F83" points="151.772,127.413 151.772,126.037 154.553,126.037 154.553,104.313 151.772,104.313 151.772,102.945 161.023,102.945 161.023,104.313 158.242,104.313 158.242,125.752 166.934,125.752 166.934,122.485 168.632,122.485 168.632,127.413 151.772,127.413"/>
	<polyline fill="#807F83" points="173.138,127.413 173.138,126.037 175.919,126.037 175.919,104.313 173.138,104.313 173.138,102.945 182.39,102.945 182.39,104.313 179.608,104.313 179.608,125.752 188.309,125.752 188.309,122.485 190.007,122.485 190.007,127.413 173.138,127.413"/>
	<polyline fill="#807F83" points="75.668,104.313 68.551,115.923 68.551,126.037 71.364,126.037 71.364,127.413 62.113,127.413 62.113,126.037 64.898,126.037 64.898,116.152 57.203,104.313 55.069,104.313 55.069,102.955 64.655,102.955 64.655,104.313 61.553,104.313 67.771,113.849 73.558,104.313 70.175,104.313 70.175,102.955 77.586,102.955 77.586,104.313 75.668,104.313"/>
	<path fill="#807F83" d="M17.789,114.556c2.643,0.294,6.635,1.854,6.635,6.488c0,3.91-3.12,6.369-7.553,6.369H5v-1.376h2.785   v-21.724H5v-1.368h11.22c3.905,0,7.016,2.12,7.016,6.076c0,3.249-2.804,5.094-5.447,5.451V114.556 M14.77,104.652h-3.295v9.233   h3.093c2.304,0,4.795-1.441,4.795-4.718C19.363,105.947,17.321,104.652,14.77,104.652z M14.917,115.556h-3.442v10.196h3.442   c3.111,0,5.713-1.679,5.713-4.9C20.629,117.511,18.202,115.556,14.917,115.556z"/>
	<polyline fill="#807F83" points="49.902,104.322 49.902,127.817 48.323,127.817 34.088,108.241 34.088,126.037 36.901,126.037 36.901,127.413 29.413,127.413 29.413,126.037 32.239,126.037 32.239,105.727 31.239,104.322 28.678,104.322 28.678,102.945 34.777,102.945 48.048,121.117 48.048,104.322 45.23,104.322 45.23,102.945 52.683,102.945 52.683,104.322 49.902,104.322"/>
	<path fill="#9D7C37" d="M133.096,23.854c-9.189,4.887-17.376,11.261-24.122,17.942c6.581,6.457,14.249,12.638,24.122,17.938   l45.88-17.938L133.096,23.854"/>
	<path fill="#A7A9AC" d="M106.01,38.754C95.694,27.787,88.668,15.484,85.126,5.109l46.666,18.241   C123.374,26.768,114.398,31.99,106.01,38.754"/>
	<path fill="#8C7965" d="M106.01,44.834C95.694,55.802,88.668,68.109,85.126,78.487l46.666-18.248   C123.374,56.825,114.398,51.603,106.01,44.834"/>
</g>
</svg>