<?xml version="1.0" encoding="UTF-8"?>
<svg width="322px" height="245px" viewBox="0 0 322 245" version="1.1" xmlns="http://www.w3.org/2000/svg" xmlns:xlink="http://www.w3.org/1999/xlink">
    <!-- Generator: Sketch 49 (51002) - http://www.bohemiancoding.com/sketch -->
    <title>lloyds-bank</title>
    <desc>Created with Sketch.</desc>
    <defs></defs>
    <g id="Page-1" stroke="none" stroke-width="1" fill="none" fill-rule="evenodd">
        <g id="lloyds-bank" fill-rule="nonzero">
            <path d="M310.973,121.833 C316.098,125.609 321.223,128.307 321.223,133.971 C321.223,135.589 319.065,137.478 314.21,137.478 C310.434,137.478 306.388,136.399 304.5,133.702 C302.881,131.814 305.039,129.117 303.96,126.959 C302.882,125.341 300.724,126.15 299.106,125.341 C297.217,124.262 297.217,123.453 295.869,121.026 C294.52,118.059 289.935,112.934 284.541,107.54 C279.956,102.955 275.101,100.527 272.943,100.797 C271.325,101.067 270.785,101.067 269.436,101.067 C265.661,101.067 262.154,104.843 256.759,107.002 C252.983,108.62 250.825,109.699 248.128,109.969 L247.318,111.048 L252.443,110.777 C257.028,110.777 263.502,109.968 268.087,109.968 C272.942,109.968 275.37,114.283 277.258,118.868 C281.034,128.039 286.429,141.525 293.171,152.584 C296.408,157.708 299.106,161.215 299.106,167.688 C299.106,169.576 298.836,172.273 296.139,172.273 C292.363,172.273 282.922,168.497 282.922,164.181 C282.922,160.945 285.35,159.596 285.35,156.36 C285.35,154.471 282.383,154.741 281.574,152.853 C279.146,142.874 276.449,133.164 270.785,127.229 C267.818,124.262 267.549,122.914 264.851,122.914 C263.233,122.914 261.884,123.184 260.536,123.724 C252.714,126.691 242.465,135.052 229.787,139.098 C224.933,140.716 224.123,137.749 218.999,138.828 L219.269,138.828 C215.223,139.637 211.987,142.064 206.592,143.413 C198.77,145.571 185.553,146.649 175.034,145.301 C167.481,144.223 157.771,142.874 153.456,142.874 C150.22,152.044 143.477,164.182 133.227,169.037 C127.833,171.464 126.214,174.701 127.833,180.904 C129.721,188.457 136.464,194.121 139.97,200.324 C143.207,205.988 148.331,214.62 153.995,217.587 C159.66,220.554 162.896,224.6 162.896,228.106 C162.896,229.725 162.086,230.803 160.468,230.803 L149.409,230.803 C147.791,230.803 146.981,229.725 146.442,229.185 C144.824,226.218 145.903,223.521 144.014,221.093 C142.396,219.205 141.317,219.744 139.429,218.126 C136.193,214.89 138.619,213.002 136.193,208.956 C129.179,197.896 126.213,195.2 120.279,187.378 C117.043,183.063 112.997,181.174 112.997,175.51 C112.997,168.767 119.74,167.689 119.47,160.946 C115.156,164.182 110.031,166.61 102.208,167.689 C101.129,167.959 98.432,169.846 97.354,171.195 C94.657,173.892 93.578,176.59 93.308,180.635 C92.498,189.806 90.611,198.976 91.69,208.147 C93.308,214.081 94.117,215.969 98.972,219.206 C101.939,221.094 105.446,224.061 105.985,228.377 C105.985,229.455 105.715,230.804 104.097,230.804 L92.229,230.804 C91.15,230.804 90.071,229.995 89.801,229.186 C88.452,226.759 89.262,225.14 88.722,222.443 C87.644,216.779 81.44,217.319 81.44,211.654 C81.44,210.036 82.519,207.879 82.519,204.372 C82.789,196.551 85.216,184.143 82.789,169.039 C81.71,160.138 90.881,159.868 95.466,152.315 C98.433,148 97.355,149.888 99.242,146.651 C100.86,143.415 100.591,140.987 100.321,138.83 C100.321,136.402 97.893,131.008 99.511,119.949 C100.051,115.094 102.478,110.239 105.715,105.924 C105.715,105.654 105.715,105.114 104.636,105.114 C100.051,105.384 100.051,104.305 96.814,104.305 C93.847,104.305 91.419,106.732 90.88,108.08 C89.262,107.541 88.722,105.653 88.722,104.844 C88.722,103.226 88.993,101.608 90.611,99.989 C91.15,99.45 90.611,98.911 89.801,98.911 C86.025,98.911 82.519,103.496 81.709,106.732 C79.552,106.462 79.282,103.496 78.473,103.496 C77.394,103.496 76.855,105.114 76.855,106.463 C76.855,117.252 94.386,119.68 94.386,133.705 C94.386,150.158 74.697,146.651 74.697,152.586 C74.697,153.664 75.507,154.743 77.125,155.553 C76.586,157.171 74.697,157.71 72.81,157.71 C68.495,157.71 65.257,154.474 65.257,150.158 C65.257,141.257 77.125,140.987 77.125,134.244 C77.125,131.008 75.237,129.929 73.349,128.58 C62.021,120.488 55.547,112.397 55.547,99.181 C55.547,84.886 65.527,73.827 78.474,73.827 C97.355,73.827 97.894,95.404 114.886,97.293 C121.36,92.977 128.911,90.279 136.195,90.279 C147.254,90.279 152.108,93.247 163.976,93.247 C168.561,93.247 176.653,91.898 186.093,85.425 C189.599,82.997 191.218,82.458 194.454,79.761 C201.736,73.287 208.749,60.88 208.749,51.98 L208.749,52.519 C208.749,49.552 208.21,47.934 206.861,47.934 C202.815,47.934 199.308,51.709 195.262,55.486 C192.835,58.183 196.611,59.262 190.947,62.499 C189.059,63.578 186.632,61.69 184.474,61.69 C179.888,61.69 178,56.295 178,51.711 C178,49.283 179.888,48.743 180.967,46.586 C183.395,42.001 183.125,40.382 185.282,35.797 C186.631,32.83 189.058,30.672 188.789,28.515 C188.789,27.705 188.249,27.166 188.249,26.357 C188.249,21.772 194.184,18.804 194.184,14.219 C194.184,11.791 191.217,10.443 190.677,8.555 C190.138,6.667 190.407,6.127 190.407,6.127 C190.677,5.857 190.946,5.588 191.217,5.588 C193.644,5.588 194.453,8.016 196.881,9.364 C197.151,6.396 196.071,5.588 196.071,3.429 C196.071,2.351 195.801,0.462 197.15,0.462 C198.768,0.462 198.499,2.351 199.847,3.429 C201.465,4.778 203.083,4.508 204.972,5.857 C207.399,7.475 208.747,9.903 209.557,10.172 C211.985,10.442 212.524,7.744 211.445,5.857 C214.142,5.587 216.84,7.745 220.346,7.745 C226.01,7.745 227.628,9.364 228.707,10.173 C232.213,13.14 233.022,15.568 236.799,15.568 C238.687,15.568 239.766,13.95 240.305,13.14 C243.002,15.029 243.272,20.154 240.305,24.469 C241.384,27.975 246.509,28.244 248.936,30.133 C251.364,31.751 250.825,32.56 252.712,33.639 C254.061,34.449 255.14,34.179 256.219,33.639 C257.297,38.225 253.252,42.54 248.397,43.079 C248.667,49.014 254.871,52.789 257.837,54.408 C256.219,58.183 253.252,59.262 250.555,60.072 C251.364,63.847 255.409,69.242 253.522,74.097 C251.633,73.287 248.936,74.097 248.936,76.794 C248.936,79.761 252.712,81.379 248.666,83.537 C246.778,84.615 246.509,87.312 249.745,89.74 C254.06,88.661 258.376,88.661 263.231,88.661 C266.198,88.661 270.244,87.852 272.941,87.852 C278.066,87.852 281.033,89.74 284.808,93.786 C292.902,104.032 301.263,114.551 310.973,121.833" id="Shape" fill="#000000"></path>
            <path d="M61.481,94.861 C63.369,94.861 67.145,83.802 74.697,83.802 C76.855,83.802 77.394,84.611 77.394,85.42 C77.394,87.038 74.966,88.387 74.966,90.275 C74.966,90.545 75.237,91.084 75.776,91.084 C77.664,91.084 79.012,87.038 86.565,87.038 C88.722,87.038 90.341,87.308 92.229,87.848 C93.039,88.118 94.657,88.927 94.117,86.499 C92.229,81.374 86.565,76.52 78.473,76.52 C70.381,76.52 62.02,83.802 60.941,92.433 C60.671,93.782 60.671,94.861 61.481,94.861 M200.927,25.542 C198.769,24.733 198.499,23.385 199.038,20.688 C199.578,17.721 199.578,16.642 198.229,16.373 C197.15,16.102 195.532,16.643 193.914,18.261 C192.564,20.149 190.407,22.307 189.598,24.195 C188.789,26.623 191.756,26.353 189.869,30.13 C186.362,36.603 185.553,37.951 183.934,42.268 C182.316,46.853 181.237,47.663 180.428,49.281 C179.349,50.63 181.777,50.899 184.474,50.09 C187.441,49.012 187.441,52.518 186.362,54.676 C185.552,56.294 186.092,57.103 188.52,55.215 C190.677,53.597 187.441,52.248 188.249,46.854 C189.059,41.999 190.138,39.302 193.104,34.447 C195.532,30.132 197.689,27.164 202.275,28.783 C204.163,29.588 203.354,26.621 200.927,25.542 M294.52,168.225 C295.33,168.225 295.599,167.146 295.599,166.068 C295.599,163.64 294.25,160.133 292.363,158.785 C291.824,162.292 290.205,164.72 290.205,166.068 C290.205,167.416 293.442,168.225 294.52,168.225 M315.289,134.51 C316.638,134.51 318.525,133.97 318.525,132.891 C318.525,131.003 315.558,127.227 312.861,126.418 C314.749,130.195 312.862,134.51 315.289,134.51 M223.044,88.657 C241.924,97.289 240.846,113.471 242.464,109.426 C243.273,107.808 245.7,99.987 238.957,92.164 C233.832,86.23 231.675,87.579 233.832,82.724 C242.194,62.765 247.318,32.555 222.504,21.767 C219.537,20.688 217.38,20.688 217.38,21.227 C217.38,21.767 220.076,22.576 223.314,24.734 C239.767,35.793 234.642,65.463 219.538,79.757 C214.412,84.611 216.84,85.69 223.044,88.657 M158.04,228.104 C159.389,228.104 158.58,226.215 158.311,225.136 C157.232,223.248 155.074,221.9 153.186,220.821 C153.725,222.71 153.996,227.834 155.883,227.834 L158.04,227.834 M100.86,228.104 C102.209,228.104 101.13,226.215 100.59,225.136 C99.511,223.248 97.083,221.9 95.195,221.09 C95.734,222.979 96.005,228.104 98.162,228.104 L100.86,228.104 M170.178,114.281 C180.698,113.202 182.316,110.774 184.203,102.953 C185.013,99.177 187.71,95.4 190.138,92.974 C191.756,91.355 193.105,90.006 194.723,87.309 C195.262,86.231 195.533,85.421 194.723,85.691 C193.644,86.501 190.138,88.928 188.52,90.006 C181.237,95.131 169.909,97.828 165.324,97.828 C155.614,97.828 147.522,94.861 138.621,94.861 C112.459,94.861 102.749,115.36 104.097,127.227 C104.368,129.116 104.637,129.116 105.176,129.116 C107.065,129.116 108.683,122.103 115.156,115.899 C124.865,106.728 135.115,101.604 149.95,101.604 C160.738,101.604 165.054,105.11 165.054,106.458 C165.054,109.155 160.469,109.425 160.739,112.122 C160.738,112.932 163.435,115.091 170.178,114.281" id="Shape" fill="#747172"></path>
            <polygon id="Shape" fill="#008037" points="0 235.386 252.444 235.386 252.444 244.556 0 244.556"></polygon>
        </g>
    </g>
</svg>