<?xml version="1.0" encoding="UTF-8"?>
<svg width="388px" height="245px" viewBox="0 0 388 245" version="1.1" xmlns="http://www.w3.org/2000/svg" xmlns:xlink="http://www.w3.org/1999/xlink">
    <!-- Generator: Sketch 49 (51002) - http://www.bohemiancoding.com/sketch -->
    <title>lloyds-bank</title>
    <desc>Created with Sketch.</desc>
    <defs></defs>
    <g id="Page-1" stroke="none" stroke-width="1" fill="none" fill-rule="evenodd">
        <g id="lloyds-bank" fill-rule="nonzero">
            <path d="M376.973,121.833 C382.098,125.609 387.223,128.307 387.223,133.971 C387.223,135.589 385.065,137.478 380.21,137.478 C376.434,137.478 372.388,136.399 370.5,133.702 C368.881,131.814 371.039,129.117 369.96,126.959 C368.882,125.341 366.724,126.15 365.106,125.341 C363.217,124.262 363.217,123.453 361.869,121.026 C360.52,118.059 355.935,112.934 350.541,107.54 C345.956,102.955 341.101,100.527 338.943,100.797 C337.325,101.067 336.785,101.067 335.436,101.067 C331.661,101.067 328.154,104.843 322.759,107.002 C318.983,108.62 316.825,109.699 314.128,109.969 L313.318,111.048 L318.443,110.777 C323.028,110.777 329.502,109.968 334.087,109.968 C338.942,109.968 341.37,114.283 343.258,118.868 C347.034,128.039 352.429,141.525 359.171,152.584 C362.408,157.708 365.106,161.215 365.106,167.688 C365.106,169.576 364.836,172.273 362.139,172.273 C358.363,172.273 348.922,168.497 348.922,164.181 C348.922,160.945 351.35,159.596 351.35,156.36 C351.35,154.471 348.383,154.741 347.574,152.853 C345.146,142.874 342.449,133.164 336.785,127.229 C333.818,124.262 333.549,122.914 330.851,122.914 C329.233,122.914 327.884,123.184 326.536,123.724 C318.714,126.691 308.465,135.052 295.787,139.098 C290.933,140.716 290.123,137.749 284.999,138.828 L285.269,138.828 C281.223,139.637 277.987,142.064 272.592,143.413 C264.77,145.571 251.553,146.649 241.034,145.301 C233.481,144.223 223.771,142.874 219.456,142.874 C216.22,152.044 209.477,164.182 199.227,169.037 C193.833,171.464 192.214,174.701 193.833,180.904 C195.721,188.457 202.464,194.121 205.97,200.324 C209.207,205.988 214.331,214.62 219.995,217.587 C225.66,220.554 228.896,224.6 228.896,228.106 C228.896,229.725 228.086,230.803 226.468,230.803 L215.409,230.803 C213.791,230.803 212.981,229.725 212.442,229.185 C210.824,226.218 211.903,223.521 210.014,221.093 C208.396,219.205 207.317,219.744 205.429,218.126 C202.193,214.89 204.619,213.002 202.193,208.956 C195.179,197.896 192.213,195.2 186.279,187.378 C183.043,183.063 178.997,181.174 178.997,175.51 C178.997,168.767 185.74,167.689 185.47,160.946 C181.156,164.182 176.031,166.61 168.208,167.689 C167.129,167.959 164.432,169.846 163.354,171.195 C160.657,173.892 159.578,176.59 159.308,180.635 C158.498,189.806 156.611,198.976 157.69,208.147 C159.308,214.081 160.117,215.969 164.972,219.206 C167.939,221.094 171.446,224.061 171.985,228.377 C171.985,229.455 171.715,230.804 170.097,230.804 L158.229,230.804 C157.15,230.804 156.071,229.995 155.801,229.186 C154.452,226.759 155.262,225.14 154.722,222.443 C153.644,216.779 147.44,217.319 147.44,211.654 C147.44,210.036 148.519,207.879 148.519,204.372 C148.789,196.551 151.216,184.143 148.789,169.039 C147.71,160.138 156.881,159.868 161.466,152.315 C164.433,148 163.355,149.888 165.242,146.651 C166.86,143.415 166.591,140.987 166.321,138.83 C166.321,136.402 163.893,131.008 165.511,119.949 C166.051,115.094 168.478,110.239 171.715,105.924 C171.715,105.654 171.715,105.114 170.636,105.114 C166.051,105.384 166.051,104.305 162.814,104.305 C159.847,104.305 157.419,106.732 156.88,108.08 C155.262,107.541 154.722,105.653 154.722,104.844 C154.722,103.226 154.993,101.608 156.611,99.989 C157.15,99.45 156.611,98.911 155.801,98.911 C152.025,98.911 148.519,103.496 147.709,106.732 C145.552,106.462 145.282,103.496 144.473,103.496 C143.394,103.496 142.855,105.114 142.855,106.463 C142.855,117.252 160.386,119.68 160.386,133.705 C160.386,150.158 140.697,146.651 140.697,152.586 C140.697,153.664 141.507,154.743 143.125,155.553 C142.586,157.171 140.697,157.71 138.81,157.71 C134.495,157.71 131.257,154.474 131.257,150.158 C131.257,141.257 143.125,140.987 143.125,134.244 C143.125,131.008 141.237,129.929 139.349,128.58 C128.021,120.488 121.547,112.397 121.547,99.181 C121.547,84.886 131.527,73.827 144.474,73.827 C163.355,73.827 163.894,95.404 180.886,97.293 C187.36,92.977 194.911,90.279 202.195,90.279 C213.254,90.279 218.108,93.247 229.976,93.247 C234.561,93.247 242.653,91.898 252.093,85.425 C255.599,82.997 257.218,82.458 260.454,79.761 C267.736,73.287 274.749,60.88 274.749,51.98 L274.749,52.519 C274.749,49.552 274.21,47.934 272.861,47.934 C268.815,47.934 265.308,51.709 261.262,55.486 C258.835,58.183 262.611,59.262 256.947,62.499 C255.059,63.578 252.632,61.69 250.474,61.69 C245.888,61.69 244,56.295 244,51.711 C244,49.283 245.888,48.743 246.967,46.586 C249.395,42.001 249.125,40.382 251.282,35.797 C252.631,32.83 255.058,30.672 254.789,28.515 C254.789,27.705 254.249,27.166 254.249,26.357 C254.249,21.772 260.184,18.804 260.184,14.219 C260.184,11.791 257.217,10.443 256.677,8.555 C256.138,6.667 256.407,6.127 256.407,6.127 C256.677,5.857 256.946,5.588 257.217,5.588 C259.644,5.588 260.453,8.016 262.881,9.364 C263.151,6.396 262.071,5.588 262.071,3.429 C262.071,2.351 261.801,0.462 263.15,0.462 C264.768,0.462 264.499,2.351 265.847,3.429 C267.465,4.778 269.083,4.508 270.972,5.857 C273.399,7.475 274.747,9.903 275.557,10.172 C277.985,10.442 278.524,7.744 277.445,5.857 C280.142,5.587 282.84,7.745 286.346,7.745 C292.01,7.745 293.628,9.364 294.707,10.173 C298.213,13.14 299.022,15.568 302.799,15.568 C304.687,15.568 305.766,13.95 306.305,13.14 C309.002,15.029 309.272,20.154 306.305,24.469 C307.384,27.975 312.509,28.244 314.936,30.133 C317.364,31.751 316.825,32.56 318.712,33.639 C320.061,34.449 321.14,34.179 322.219,33.639 C323.297,38.225 319.252,42.54 314.397,43.079 C314.667,49.014 320.871,52.789 323.837,54.408 C322.219,58.183 319.252,59.262 316.555,60.072 C317.364,63.847 321.409,69.242 319.522,74.097 C317.633,73.287 314.936,74.097 314.936,76.794 C314.936,79.761 318.712,81.379 314.666,83.537 C312.778,84.615 312.509,87.312 315.745,89.74 C320.06,88.661 324.376,88.661 329.231,88.661 C332.198,88.661 336.244,87.852 338.941,87.852 C344.066,87.852 347.033,89.74 350.808,93.786 C358.902,104.032 367.263,114.551 376.973,121.833" id="Shape" fill="#000000"></path>
            <path d="M127.481,94.861 C129.369,94.861 133.145,83.802 140.697,83.802 C142.855,83.802 143.394,84.611 143.394,85.42 C143.394,87.038 140.966,88.387 140.966,90.275 C140.966,90.545 141.237,91.084 141.776,91.084 C143.664,91.084 145.012,87.038 152.565,87.038 C154.722,87.038 156.341,87.308 158.229,87.848 C159.039,88.118 160.657,88.927 160.117,86.499 C158.229,81.374 152.565,76.52 144.473,76.52 C136.381,76.52 128.02,83.802 126.941,92.433 C126.671,93.782 126.671,94.861 127.481,94.861 M266.927,25.542 C264.769,24.733 264.499,23.385 265.038,20.688 C265.578,17.721 265.578,16.642 264.229,16.373 C263.15,16.102 261.532,16.643 259.914,18.261 C258.564,20.149 256.407,22.307 255.598,24.195 C254.789,26.623 257.756,26.353 255.869,30.13 C252.362,36.603 251.553,37.951 249.934,42.268 C248.316,46.853 247.237,47.663 246.428,49.281 C245.349,50.63 247.777,50.899 250.474,50.09 C253.441,49.012 253.441,52.518 252.362,54.676 C251.552,56.294 252.092,57.103 254.52,55.215 C256.677,53.597 253.441,52.248 254.249,46.854 C255.059,41.999 256.138,39.302 259.104,34.447 C261.532,30.132 263.689,27.164 268.275,28.783 C270.163,29.588 269.354,26.621 266.927,25.542 M360.52,168.225 C361.33,168.225 361.599,167.146 361.599,166.068 C361.599,163.64 360.25,160.133 358.363,158.785 C357.824,162.292 356.205,164.72 356.205,166.068 C356.205,167.416 359.442,168.225 360.52,168.225 M381.289,134.51 C382.638,134.51 384.525,133.97 384.525,132.891 C384.525,131.003 381.558,127.227 378.861,126.418 C380.749,130.195 378.862,134.51 381.289,134.51 M289.044,88.657 C307.924,97.289 306.846,113.471 308.464,109.426 C309.273,107.808 311.7,99.987 304.957,92.164 C299.832,86.23 297.675,87.579 299.832,82.724 C308.194,62.765 313.318,32.555 288.504,21.767 C285.537,20.688 283.38,20.688 283.38,21.227 C283.38,21.767 286.076,22.576 289.314,24.734 C305.767,35.793 300.642,65.463 285.538,79.757 C280.412,84.611 282.84,85.69 289.044,88.657 M224.04,228.104 C225.389,228.104 224.58,226.215 224.311,225.136 C223.232,223.248 221.074,221.9 219.186,220.821 C219.725,222.71 219.996,227.834 221.883,227.834 L224.04,227.834 M166.86,228.104 C168.209,228.104 167.13,226.215 166.59,225.136 C165.511,223.248 163.083,221.9 161.195,221.09 C161.734,222.979 162.005,228.104 164.162,228.104 L166.86,228.104 M236.178,114.281 C246.698,113.202 248.316,110.774 250.203,102.953 C251.013,99.177 253.71,95.4 256.138,92.974 C257.756,91.355 259.105,90.006 260.723,87.309 C261.262,86.231 261.533,85.421 260.723,85.691 C259.644,86.501 256.138,88.928 254.52,90.006 C247.237,95.131 235.909,97.828 231.324,97.828 C221.614,97.828 213.522,94.861 204.621,94.861 C178.459,94.861 168.749,115.36 170.097,127.227 C170.368,129.116 170.637,129.116 171.176,129.116 C173.065,129.116 174.683,122.103 181.156,115.899 C190.865,106.728 201.115,101.604 215.95,101.604 C226.738,101.604 231.054,105.11 231.054,106.458 C231.054,109.155 226.469,109.425 226.739,112.122 C226.738,112.932 229.435,115.091 236.178,114.281" id="Shape" fill="#747172"></path>
            <polygon id="Shape" fill="#008037" points="0.981 235.386 318.444 235.386 318.444 244.556 0.981 244.556"></polygon>
        </g>
    </g>
</svg>