<?xml version="1.0" encoding="UTF-8"?>
<svg width="81px" height="66px" viewBox="0 0 81 66" version="1.1" xmlns="http://www.w3.org/2000/svg" xmlns:xlink="http://www.w3.org/1999/xlink">
    <!-- Generator: Sketch 47.1 (45422) - http://www.bohemiancoding.com/sketch -->
    <title>Fill 5</title>
    <desc>Created with Sketch.</desc>
    <defs></defs>
    <g id="Page-1" stroke="none" stroke-width="1" fill="none" fill-rule="evenodd">
        <path d="M66.5666319,33.4846504 C66.4186319,33.2036504 66.3326319,32.8536504 66.1116319,32.6526504 C64.9356319,31.5776504 63.7866319,30.4596504 62.5166319,29.5026504 C56.5096319,24.9746504 51.0016319,19.8886504 45.6386319,14.6326504 C42.7846319,11.8366504 39.8176319,9.17165036 36.5316319,6.88065036 C34.5576319,5.50565036 32.7696319,3.92465036 31.2536319,2.04565036 C30.6526319,1.30065036 30.0026319,0.596650364 29.3446319,-0.0973496361 C28.7466319,-0.730349636 27.8806319,-0.741349636 27.2546319,-0.0443496361 C23.7216319,3.88365036 19.7916319,7.38365036 15.7206319,10.7366504 C15.4766319,10.9376504 15.2866319,11.2016504 15.0696319,11.4336504 C14.6056319,11.9326504 14.5986319,12.6576504 15.1406319,13.1386504 C16.8106319,14.6216504 18.5036319,16.0806504 20.1976319,17.5366504 C24.4336319,21.1776504 28.6866319,24.8006504 32.9066319,28.4626504 C33.7456319,29.1896504 34.5066319,30.0176504 35.2256319,30.8656504 C35.7976319,31.5416504 35.7246319,32.3716504 35.3456319,33.1166504 C35.0596319,33.6786504 34.7056319,34.2406504 34.2636319,34.6846504 C30.8926319,38.0816504 27.7586319,41.7176504 24.0036319,44.7256504 C21.0126319,47.1206504 18.0636319,49.5676504 15.1166319,52.0156504 C14.0916319,52.8676504 14.0636319,53.5976504 15.0826319,54.3226504 C17.7046319,56.1866504 19.8896319,58.5036504 22.1226319,60.7906504 C24.0136319,62.7296504 26.0556319,64.5256504 28.0736319,66.3386504 C28.9926319,67.1626504 29.6476319,67.1206504 30.5786319,66.2796504 C33.8946319,63.2826504 37.0776319,60.1256504 40.5256319,57.2906504 C49.1656319,50.1866504 57.1666319,42.3736504 65.5726319,35.0116504 C65.9226319,34.7056504 66.1906319,34.2996504 66.4696319,33.9206504 C66.5506319,33.8106504 66.5366319,33.6316504 66.5666319,33.4846504 L66.5666319,33.4846504 Z M27.0376319,73.4546504 C23.6386319,70.0836504 20.2896319,66.6606504 16.8186319,63.3656504 C15.3236319,61.9446504 13.5966319,60.7616504 11.9396319,59.5176504 C10.7906319,58.6546504 9.58763189,57.8666504 8.73063189,56.6716504 C7.81863189,55.4016504 7.76363189,53.9886504 8.54763189,52.6246504 C9.36163189,51.2126504 10.5176319,50.0996504 11.7486319,49.0906504 C14.5886319,46.7626504 17.5196319,44.5446504 20.3596319,42.2156504 C22.5806319,40.3946504 24.7226319,38.4796504 26.8906319,36.5956504 C27.2516319,36.2826504 27.5816319,35.9296504 27.8936319,35.5666504 C29.6116319,33.5706504 29.9436319,33.5806504 27.5466319,31.4226504 C26.2416319,30.2486504 24.9056319,29.1056504 23.5586319,27.9766504 C19.8866319,24.8966504 16.1946319,21.8416504 12.5296319,18.7546504 C11.5546319,17.9316504 10.5826319,17.0876504 9.72863189,16.1446504 C8.10963189,14.3566504 8.09063189,12.3106504 9.64363189,10.5396504 C10.3786319,9.70265036 11.1966319,8.92965036 12.0416319,8.20265036 C13.4936319,6.95265036 14.9806319,5.74165036 16.4816319,4.54865036 C19.8666319,1.85965036 23.0346319,-1.02134964 25.7266319,-4.45034964 C28.3636319,-7.80934964 30.2416319,-7.78634964 33.1726319,-4.75334964 C33.3946319,-4.52334964 33.6366319,-4.30234964 33.8116319,-4.03934964 C36.1616319,-0.493349636 39.5006319,1.94165036 42.9566319,4.28865036 C44.5306319,5.35765036 46.0066319,6.63065036 47.3326319,8.00065036 C53.7896319,14.6706504 60.8136319,20.7026504 67.9496319,26.6186504 C69.2936319,27.7316504 70.5336319,29.0086504 71.6386319,30.3586504 C73.1706319,32.2286504 72.9416319,34.2496504 71.1086319,35.8656504 C61.8836319,43.9996504 52.6546319,52.1276504 43.3956319,60.2216504 C40.2666319,62.9566504 37.1876319,65.7276504 34.3296319,68.7556504 C32.7036319,70.4776504 30.7576319,71.8986504 28.9576319,73.4546504 L27.0376319,73.4546504 Z" id="Fill-5" fill="#50504F" transform="translate(40.325764, 33.227325) rotate(-90.000000) translate(-40.325764, -33.227325) "></path>
    </g>
</svg>