<?xml version="1.0" encoding="UTF-8"?>
<svg width="40px" height="33px" viewBox="0 0 40 33" version="1.1" xmlns="http://www.w3.org/2000/svg" xmlns:xlink="http://www.w3.org/1999/xlink">
    <!-- Generator: Sketch 51.2 (57519) - http://www.bohemiancoding.com/sketch -->
    <title>Logo / Glyph / Dark</title>
    <desc>Created with Sketch.</desc>
    <defs></defs>
    <g id="Sponsorship-Proposal" stroke="none" stroke-width="1" fill="none" fill-rule="evenodd">
        <g id="Sponsorship-Terms" transform="translate(-525.000000, -30.000000)" fill="#C62828">
            <g id="Logo-/-Glyph-/-Dark" transform="translate(525.000000, 30.000000)">
                <path d="M35.4657162,19.2180181 L32.9669222,19.2180181 C32.4770198,19.9782512 31.9528283,20.7164566 31.3996231,21.4317979 L35.4254579,21.4317979 C34.9738703,22.0156703 34.504097,22.5851829 34.0162769,23.1375474 C33.569548,23.6432077 33.1081041,24.1346476 32.6345826,24.61354 L29.6780929,24.61354 C28.8641801,25.4369284 28.0115361,26.2201651 27.1279348,26.9672931 L29.529137,26.9672931 C28.6347076,27.7233437 27.7077938,28.4413339 26.7543651,29.1226578 L25.7826119,29.1226578 C24.0433124,30.3658265 22.2173881,31.4892371 20.3348245,32.5 C18.4576749,31.4892371 16.6318895,30.3658265 14.8924512,29.1226578 L15.8642044,29.1226578 C14.9107757,28.4413339 13.9840008,27.7233437 13.0894325,26.9672931 L10.6882303,26.9672931 C10.0275171,26.4086278 9.38411304,25.8297731 8.76126839,25.2290386 L16.0483163,25.2290386 L15.3485571,23.1171872 L9.6949017,23.1171872 C9.21351087,22.5711912 8.74972797,22.0084992 8.30368676,21.4317979 L4.27785201,21.4317979 C3.72464679,20.7164566 3.20059416,19.9782512 2.71055289,19.2180181 L5.20934688,19.2180181 C4.78705069,18.5629043 4.39029774,17.8916183 4.0215868,17.2049967 L4.73766487,17.1998475 L1.9908447,17.2049967 C1.71000802,16.6446855 1.44721818,16.0754517 1.20594574,15.4963194 L2.45534273,15.4963194 C2.42202548,15.4160161 2.38732001,15.3364098 2.35469687,15.255967 C2.18991528,14.8488735 2.03193598,14.441083 1.88534006,14.0317589 L3.13473705,14.0317589 C3.0052989,13.6705334 2.88475286,13.3082416 2.77620995,12.9445177 L7.48756954,12.9445177 L6.78781038,11.0673165 L0.952506358,11.0673165 C0.837310284,10.3386438 0.789370016,9.6021723 0.832931328,8.85497992 L0,8.85497992 C0.0302631716,8.33914232 0.10369995,7.81828575 0.228917293,7.29143431 C0.318457411,6.91487285 0.43090314,6.5445851 0.5632004,6.18182579 L1.95141928,6.18182579 C2.17436723,5.57007027 2.45728624,4.98201539 2.79462343,4.42742025 C3.36393199,3.49166295 4.089554,2.65391479 4.95052735,1.96799019 C4.99869854,1.9296509 5.04562034,1.89005688 5.09462447,1.85269351 C6.68635624,0.637407986 8.65193535,0 10.6479165,0 C12.8401917,0 15.0185848,0.733604729 16.8270175,1.96799019 C17.8237587,2.64847758 18.7077765,3.48078853 19.4192386,4.42742025 C19.7692086,4.89320767 20.078365,5.38576288 20.3375454,5.90201874 C20.5968647,5.38576288 20.9060211,4.89320767 21.255991,4.42742025 C21.9674532,3.48078853 22.8513322,2.64847758 23.8480733,1.96799019 C25.6565061,0.733604729 27.8348991,0 30.0271744,0 C32.0231555,0 33.9888734,0.637407986 35.5806052,1.85269351 C35.6296093,1.89005688 35.6765311,1.9296509 35.7247023,1.96799019 C36.5855368,2.65391479 37.3111589,3.49166295 37.8804674,4.42742025 C38.2178046,4.98201539 38.5007236,5.57007027 38.7238104,6.18182579 L37.3355915,6.18182579 C37.4677499,6.5445851 37.5803345,6.91487285 37.6697358,7.29143431 C37.795092,7.81828575 37.8685287,8.33914232 37.8986531,8.85497992 L38.7315844,8.85497992 C38.7751745,9.60266563 38.7272809,10.3396163 38.6117811,11.0687598 L40,11.0687598 C39.8451648,12.0465807 39.5692193,13.010014 39.2297366,13.9658314 L30.3229389,13.9658314 L29.6231798,17.0162833 L36.6289328,17.0162833 C36.2671759,17.6968464 35.8786581,18.5774157 35.4657162,19.2180181 Z" id="Combined-Shape"></path>
            </g>
        </g>
    </g>
</svg>