<svg width="312" height="184" viewBox="0 0 312 184" xmlns="http://www.w3.org/2000/svg"><title>Background</title><path d="M83.6 20.478c-1.173-2.683-2.038-4.3-2.11-4.436-.984-1.817-2.872-2.963-4.94-2.985 0 0-1.25-.015-2.54-.023C67.26 5.602 57.006.924 47.097.924c-8.043 0-15.45 2.958-21.415 8.55-1.905 1.786-3.486 4.137-4.705 7.01-.737 1.756-.544 3.786.514 5.37.296.446.702.926 1.248 1.347-1.177 3.367-2.166 6.466-2.96 9.264-.38 1.322-.264 2.732.3 3.96-.834 1.024-1.118 2.11-1.195 2.482-.597 2.855-.893 4.984-.97 6.915-.054 1.448.083 3.43.268 5.286-.324.282-.62.603-.882.958-1.068 1.464-1.378 3.352-.823 5.08.125.396 3.104 9.7 5.43 14.432.958 1.945 2.937 3.176 5.104 3.176h.62c1.982 4.4 5.383 12.257 6.682 17.104.987 3.688 1.152 4.52-.387 7.384-.47.003-.91.003-1.19-.003-.083-.008-.163-.017-.243-.02-2.047-.15-3.935.81-5.066 2.47-2.158 3.174-5.254 8.732-5.385 8.968-.815 1.47-.932 3.21-.355 4.754H8.245c-1.9 0-3.673.948-4.728 2.53l-1.706 2.555c-1.167 1.743-1.275 3.99-.286 5.84.99 1.848 2.915 3.002 5.016 3.002h6.43l-.946 1.422h-.367c-2.095 0-4.017 1.15-5.006 2.99L.68 144.84c-.95 1.763-.9 3.893.125 5.61.43.72 1.004 1.32 1.67 1.777-.004 1.015.06 1.996.12 2.66.138 1.53.868 2.873 1.954 3.808 2.735 8.97 10.53 18.86 16.53 23.274.986.724 2.17 1.105 3.372 1.105.42 0 .844-.048 1.262-.142 1.612-.37 2.986-1.42 3.76-2.88 3.127-5.888 6.152-11.694 9.134-17.47 2.6.016 6.87.02 13.992.02 2.135 0 4.088-1.196 5.06-3.095.31-.6.487-1.17.805-2.214.083-.262.156-.526.225-.717.71-1.68.574-3.614-.387-5.186-1.035-1.688-2.872-2.72-4.85-2.72-2.687 0-5.45-.002-7.936-.01.267-1.36.034-2.793-.694-4.015-.073-.12-.147-.236-.227-.347.404-.734.802-1.462 1.183-2.167 2.128 0 4.082-1.19 5.054-3.086.833-1.627 1.612-3.09 2.383-4.515-.512 1.426-.438 3.012.238 4.403.333.685.67 1.41 1.018 2.155 1.48 3.173 3.15 6.766 5.553 9.905 1.055 1.376 2.68 2.195 4.413 2.23l1.835 3.678c.13.26.28.504.444.738.087.75.33 1.492.72 2.166 3.29 5.69 7.152 12.444 10.842 19.4.78 1.46 2.153 2.512 3.767 2.88 1.62.36 3.312.007 4.642-.98 7.043-5.22 10.262-11.645 13.625-18.454 1.464-.003 3.25 0 5.033 0 10.713-.003 12.34-.003 13.584-2.747.95-1.222 1.644-2.547 1.87-3.005.418-.833.616-1.74.6-2.64l168.77-9.09c14.112-.758 23.738-12.69 21.5-26.648L301.33 53.982c-2.24-13.963-15.496-25.714-29.613-26.258L83.6 20.478zM69.234 95.726c4.273-8.507 8.232-17.332 10.898-26.338.06-.195-3.22-.103-3.22-.103l3.412-13.647h2.56c1.063-4.778.577-10.512 0-15.352h5.97c-.276-1.934-.342-4.04-.854-5.97H82.88c-2.523-8.965-5.97-15.354-5.97-15.354s-4.304-.052-5.118 0c-8.616-11.39-28.148-17.91-41.795-5.117-1.404 1.316-2.495 3.05-3.347 5.058-.113.265 4.304-.215 4.2.06-1.632 4.294-3.648 9.902-5.178 15.29-.08.282 5.17.07 5.17.07s-.536 4.562-.845 5.963c-.056.255-5.066-.25-5.118 0-.46 2.203-.785 4.206-.854 5.97-.112 2.91.853 9.382.853 9.382h-2.56s2.95 9.24 5.118 13.647h4.265s6.505 13.754 8.53 21.324c1.78 6.66 1.06 8.317-2.56 14.5 0 0-5.173.08-5.117 0-2.04 2.995-5.118 8.528-5.118 8.528h2.56c-1.138 3.342-5.12 7.676-4.674 7.678-1.298-.002-16.65-.002-16.65-.002l-1.707 2.56h17.06l-8.53 12.793h-3.412l-5.97 11.088h3.41s-.652 2.38-.852 3.412c-.198 1.022.014 3.44.014 3.44l17.898-.028.853 2.558h-17.06c2.306 7.698 9.338 16.672 14.5 20.47 3.68-6.93 7.22-13.744 10.715-20.534.375.064 16.58.064 17.434.064.18-.352.672-2.208.853-2.56-.853 0-16.206 0-16.952-.098 1.148-2.234 2.293-4.466 3.438-6.7-.986-.025-3.545-.025-3.545-.025 1.58-3.085 4.38-7.986 5.97-11.088h3.413c2.394-4.662 4.35-8.043 6.824-12.794h2.56c2.118 3.956 4.037 8.822 5.97 12.794h-2.56c1.65 3.39 3.41 7.743 5.97 11.088h3.413l3.412 6.824h17.06l.852 2.558s-17.117-.31-16.914.04c3.71 6.415 7.393 12.887 10.944 19.577 6.288-4.66 9.085-10.692 12.462-17.513.353-.713.656-1.382.912-2.013.036-.09 17.298-.005 17.332-.092.853-.853 1.706-2.56 1.706-2.56H98.234c1.706-3.41 0-6.823 0-6.823h-3.412l-6.824-11.088h3.412s-5.107-8.52-7.76-12.773c-.105-.168-16.976-.02-16.976-.02l-1.706-2.56 17.913-.013-4.844-7.7-2.832.038-5.118-8.53h5.118s-4.313-6.548-5.97-9.382zM56.44 76.11c-1.09-2.304-2.3-4.57-3.58-6.81-.185-.325-4.098-.015-4.95-.015-2.468-4.248-4.26-9.42-6.825-13.647h2.56c-2.777-4.63-5.07-10.35-7.015-15.277 1.044-.074 4.455-.074 5.308-.074-.47-1.234-1.595-4.886-1.705-5.97h-5.118c0-18.766 39.85-14.746 40.09 0 .852 0 4.264 0 5.117-.007 0 1.356-1.344 4.456-1.706 5.976h-5.118c-1.176 4.825-3.574 10.213-6.32 15.346-.504.006-1.357.006-2.21.006-2.583 4.737-7.158 10.114-8.53 13.647h4.266c-1.573 4.163-4.265 6.824-4.265 6.824zm175.71-4.382l-3.796-5.846h1.36L226.87 61.5l6.58-6.806h-2.042l4.217-4.36h-9.632l-3.98 4.36h2.04l-5.44 5.96v-5.96h-2.04v-7.04h2.04v-7.588h-8.044v7.587h-2.043v7.04h2.042v11.19h-1.362v5.845h1.36V78.7h8.045v-6.972h-1.36v-1.655l2.805-2.964 2.952 4.618h1.36l4.458 6.972h9.21l-4.528-6.972h-1.36zm-30.576 0l-2.317-2.343c-1.072 1.013-2.112 1.82-3.277 2.343h-6.336c-2.207-1.047-3.645-3.22-4.005-5.846H187c-.058-.427-.09-.865-.09-1.313v-.107c0-4.18 2.858-7.727 6.88-7.727 2.858 0 4.658 1.218 6.457 3.123l4.804-5.166h-2.04l.118-.127c-2.646-2.964-5.98-4.763-11.326-4.763-4.626 0-8.545 1.895-11.197 4.89h2.04c-2.323 2.624-3.674 6.094-3.674 9.875v.105c0 .407.02.81.052 1.207h-1.36c.163 2.106.75 4.086 1.693 5.846h1.36c2.43 4.534 7.193 7.607 13.023 7.607 5.662 0 8.838-2.17 11.59-5.187l-2.394-2.42h-1.36zm-32.082-17.034c-1.947-3.012-5.457-4.68-10.77-4.68-4.816 0-7.885.9-11.008 2.277l.787 2.404h2.042l1.224 3.736c2.594-.953 4.764-1.534 7.834-1.534 4.022 0 6.086 1.852 6.086 5.186v.476c-2.01-.688-4.075-1.164-6.933-1.164-4.77 0-8.524 1.44-10.304 4.488h-1.36c-.73 1.248-1.13 2.763-1.13 4.562v.105c0 .406.026.798.07 1.178h1.362c.574 4.858 4.71 7.5 9.667 7.5 3.916 0 6.615-1.428 8.573-3.598v3.07h7.78v-6.972h-1.36v-5.846h1.36V62.24c0-3.034-.606-5.577-1.88-7.546h-2.04zm-9.998 18.978c-1.923 0-3.407-.7-4.047-1.944h-1.36c-.224-.435-.347-.935-.347-1.496v-.106c0-2.54 2.117-3.916 5.558-3.916 1.958 0 3.757.423 5.133 1.058v1.43c0 1.176-.42 2.21-1.162 3.03h1.36c-1.094 1.207-2.895 1.944-5.134 1.944zm-26.675-26.02h-2.043v7.042h2.042v1.62h-15.032v-1.62h-2.04v-7.04h2.04v-6h-8.15v6h-2.042v7.04h2.042v11.188h-1.36v5.846h1.36V78.7h8.15v-6.972h-1.36v-5.846h1.36v-2.054h15.03v2.054h-1.36v5.846h1.36V78.7h8.15v-6.972h-1.36v-5.846h1.36V54.694h-2.04v-7.04h2.04v-6h-8.15v6zm132.576 68.834v-.105c0-3.926-1.037-7.686-3.197-10.51h2.04c-2.266-2.96-5.767-4.89-10.617-4.89-4.4 0-8.094 1.895-10.585 4.89h-2.04c-2.183 2.625-3.44 6.094-3.44 9.875v.106c0 .426.018.842.048 1.253h2.04c.578 7.996 6.667 13.408 14.77 13.408 5.135 0 8.946-2.01 11.592-5.292l-4.605-4.075c-2.222 2.064-4.18 2.91-6.88 2.91-3.6 0-6.14-1.904-6.933-5.556h19.74c.04-.528.076-.924.095-1.394h-2.04c.006-.19.01-.39.01-.617zm-7.833-3.016h-12.12c.635-3.652 2.805-6.034 6.14-6.034 3.386 0 5.504 2.435 5.98 6.034zm-55.044-1.96c0-2.177-.4-4.075-1.156-5.64h2.04c-1.504-3.108-4.427-4.89-8.476-4.89-4.076 0-6.457 2.17-8.31 4.55v-4.02h-8.044v4.36h-2.042v11.233h2.042v12.773h8.045v-12.773h-2.043v-3.05c0-3.812 1.96-5.77 5.028-5.77 3.07 0 4.87 1.958 4.87 5.77v3.05h2.04v12.773h8.045v-12.773h-2.04v-5.592zm-32.92 1.906c0-3.033-.608-5.575-1.88-7.545h2.04c-1.946-3.012-5.456-4.68-10.77-4.68-4.816 0-7.885.9-11.008 2.277l.787 2.404h-2.042l1.224 3.736c2.594-.953 4.763-1.534 7.833-1.534 4.022 0 6.086 1.852 6.086 5.186v.476c-2.01-.688-4.074-1.164-6.93-1.164-4.794 0-8.563 1.454-10.332 4.533h2.04c-.71 1.24-1.1 2.74-1.1 4.517v.106c0 5.61 4.392 8.68 9.738 8.68 3.916 0 6.615-1.43 8.574-3.6v3.07h7.78v-12.773h-2.04v-3.687zm-5.58 6.457c0 2.91-2.542 4.975-6.3 4.975-2.593 0-4.392-1.27-4.392-3.44v-.106c0-2.54 2.117-3.916 5.556-3.916 1.96 0 3.76.423 5.135 1.058v1.43zm118.083-14.002h-.64v-4.36h-8.045v4.36h-2.04v11.233h2.04v12.773h8.045v-10.48c0-.815.05-1.58.142-2.293h-2.04c.68-5.21 3.783-7.708 8.484-7.708h.422v-3.524h2.04v-4.89c-4.187-.187-6.738 1.757-8.41 4.89zm-2.68 1.354v-1.353h.64c-.23.43-.443.882-.64 1.354zm-54.115 16.354c-3.924 0-6.58-2.788-7.102-6.475h-2.04c-.064-.44-.097-.894-.097-1.358v-.106c0-4.18 2.856-7.728 6.88-7.728 2.856 0 4.656 1.218 6.456 3.123l4.802-5.164h2.04l.12-.127c-2.645-2.964-5.98-4.763-11.325-4.763-4.627 0-8.546 1.895-11.198 4.89h-2.04c-2.325 2.625-3.675 6.094-3.675 9.875v.106c0 .423.02.84.054 1.253h2.04c.608 7.51 6.636 13.408 14.713 13.408 5.663 0 8.84-2.17 11.59-5.186l-4.71-4.763c-1.958 1.853-3.81 3.018-6.51 3.018zm-98.656-.582c-4.27 0-7.653-2.395-9.412-5.893h-2.042c-.857-1.705-1.33-3.67-1.33-5.75v-.106c0-1.94.42-3.768 1.18-5.376h2.042c1.73-3.656 5.224-6.16 9.562-6.16 3.705 0 6.615 1.587 9.474 4.18l5.186-5.98c-3.44-3.387-7.62-5.716-14.607-5.716-9.323 0-16.333 5.792-18.563 13.677h-2.04c-.493 1.74-.756 3.58-.756 5.482v.107c0 1.97.28 3.864.802 5.643h2.04c2.298 7.822 9.317 13.408 18.2 13.408 7.144 0 11.378-2.54 15.19-6.614l-5.188-5.24c-2.91 2.646-5.504 4.34-9.738 4.34z" fill="#639" fill-rule="evenodd"/></svg>